# xmcd
#
# Track frame offsets:
#	150
#	8990
#	35555
#	71892
#	106280
#	125987
#	149362
#	185175
#	207965
#	239632
#	254752
#	277062
#	298142
#
# Disc length: 4396 seconds
#
# Revision: 1
# Processed by: cddbd v1.5.2PL0 Copyright (c) Steve Scherf et al.
# Submitted via: EZCDAudioConverter 2.1.7.1
#
DISCID=e6112a0d
DTITLE=V/A - Ohm 2/3
DYEAR=1900
DGENRE=
TTITLE0=Raymond Scott - Cindy Electronium
TTITLE1=Steve Reich - Pendulum Music
TTITLE2=Pauline Oliveros - Bye Bye Butterfly
TTITLE3=Joji Yuasa - Projection Esemplastic For White Noise
TTITLE4=Morton Subotnick - Silver Apples Of The Moon (Part 1) [Edit]
TTITLE5=David Tudor - Rainforest Version 1 [Edit]
TTITLE6=Terry Riley - Poppy Nogood [Edit]
TTITLE7=Holger Czukay - Boat-Woman-Song [Edit]
TTITLE8=Luc Ferrari - Music Promenade [Edit]
TTITLE9=François Bayle - Rosace 3 From Vibrations Composées
TTITLE10=Jean-Claude Risset - Mutations [Edit]
TTITLE11=Iannis Xenakis - Hibiki-Hana-Ma [Edit]
TTITLE12=La Monte Young - Excerpt ''31 I 69 C. 12:17:33-12:25:33 PM NYC'' [Edi
TTITLE12=t]
EXTD=
EXTT0=
EXTT1=
EXTT2=
EXTT3=
EXTT4=
EXTT5=
EXTT6=
EXTT7=
EXTT8=
EXTT9=
EXTT10=
EXTT11=
EXTT12=
PLAYORDER=
